<svg xmlns="http://www.w3.org/2000/svg" viewBox="0 0 141.62 141.62"><defs><style>.cls-1{fill:#ed2024;}.cls-2{fill:#fff;}</style></defs><g id="Layer_2" data-name="Layer 2"><g id="Layer_1-2" data-name="Layer 1"><rect class="cls-1" width="141.62" height="141.62"/><path class="cls-2" d="M108.07,36.67q-4-3.84-11-3.85c-.32,0-.63,0-1,0v0H46.37a1.6,1.6,0,0,0-1.54,1.64V36h8.86c3.48,0,6.1,3,6.1,6.7h0V87.75q0,8-2.18,12c-1.46,2.7-4,4-7.55,4a9.6,9.6,0,0,1-5.22-1.23,3.59,3.59,0,0,1-1.92-3,1.89,1.89,0,0,1,.85-1.76,11.45,11.45,0,0,1,1.92-1,5.77,5.77,0,0,0,1.92-1.28,3.83,3.83,0,0,0,.84-2.76,6.21,6.21,0,0,0-1.74-4.47,5.77,5.77,0,0,0-4.33-1.8,5.62,5.62,0,0,0-5,2.38,9.65,9.65,0,0,0-1.65,5.7,12.87,12.87,0,0,0,4,9.64q4,3.84,11,3.85c.32,0,.63,0,1,0v0h49.72a1.6,1.6,0,0,0,1.54-1.64v-1.51H94.17c-3.48,0-6.1-3-6.1-6.7h0V53.16q0-8,2.18-12c1.46-2.7,4-4,7.55-4A9.6,9.6,0,0,1,103,38.33a3.59,3.59,0,0,1,1.92,3,1.89,1.89,0,0,1-.85,1.76,11.45,11.45,0,0,1-1.92.95,5.77,5.77,0,0,0-1.92,1.28,3.83,3.83,0,0,0-.84,2.76,6.21,6.21,0,0,0,1.74,4.47,5.77,5.77,0,0,0,4.33,1.8,5.63,5.63,0,0,0,5-2.37,9.71,9.71,0,0,0,1.66-5.71A12.87,12.87,0,0,0,108.07,36.67ZM71,104.87H63a15.74,15.74,0,0,0,5.13-5.67q2.55-4.61,2.55-11.92V42.46h0A6.42,6.42,0,0,1,76.86,36h8a15.74,15.74,0,0,0-5.13,5.67q-2.55,4.6-2.55,11.92V98.45h0A6.42,6.42,0,0,1,71,104.87Z"/></g></g></svg>